PathFileType	4	(X/Y/Z)	OpenSim_Sub06_EMGStiffKnee_Accel.trc
DataRate	CameraRate	NumFrames	NumMarkers	Units	OrigDataRate	OrigDataStartFrame	OrigNumFrames
100	100	20	8	m	100	3396	5432
Frame#	Time	torso_imu_offset_imu	pelvis_imu_offset_imu	tibia_r_imu_offset_imu	femur_r_imu_offset_imu	tibia_l_imu_offset_imu	femur_l_imu_offset_imu	toes_r_imu_offset_imu	toes_l_imu_offset_imu
				X1	Y1	Z1	X2	Y2	Z2	X3	Y3	Z3	X4	Y4	Z4	X5	Y5	Z5	X6	Y6	Z6	X7	Y7	Z7	X8		Y8	Z8	

3396	33.95000000	8.88488000	0.80184100	4.56178900	6.94002600	-1.51863700	5.52848500	6.93762000	7.02716000	1.58246800	8.38420000	-0.43388800	1.77811900	9.40415900	-1.55105500	0.91428700	8.73552400	-0.35122300	-2.58894700	4.46161700	-1.91244700	11.61764400	4.93004300	1.16052100	11.09342300
3397	33.96000000	8.70649600	0.76336800	4.62032600	6.96165800	-1.69142200	5.35976300	6.33289400	6.32239300	1.88099700	7.89483800	-0.55623300	1.87163500	9.40785400	-1.62157400	0.91527400	8.35788700	-0.41070200	-2.68018700	6.04585800	-2.55350300	11.87025800	5.45775100	1.11732400	10.81387200
3398	33.97000000	8.85424600	0.72275600	4.64992000	7.00087600	-1.63524400	5.17588700	5.72431700	6.26359700	2.81950900	7.49948900	-0.22103500	1.90781400	9.41830900	-1.67524800	0.99151700	8.21686200	-0.21710500	-3.12119600	7.29671700	-3.93082000	11.98159100	5.63934200	0.76403200	10.74337200
3399	33.98000000	8.91057400	0.74574800	4.62740300	7.17821400	-1.57827100	5.06921800	5.78951900	6.91639700	3.40478400	7.23989900	0.02782000	2.00462600	9.38088900	-1.58858200	1.22440300	8.30205800	0.39269100	-3.37517600	9.43418900	-5.21160700	11.81537700	5.77063400	0.76016700	10.66956800
3400	33.99000000	8.89381700	0.76883100	4.60868200	7.40131300	-1.54774800	4.94626500	6.54688500	7.49876800	3.64576600	7.31361200	0.05924000	2.07680500	9.18950200	-1.43853100	1.49845300	8.69770400	1.19724500	-3.32838600	11.35155500	-6.53304400	10.82987800	5.33379000	0.65885600	10.70856100
3401	34	8.93864500	0.69707700	4.52201100	7.69376700	-1.70620700	4.80317000	6.92955500	7.18902200	3.79610200	7.61566300	-0.40785600	2.30196300	9.08609600	-1.16916300	1.70411700	8.90740200	1.99400000	-2.75583000	12.50238700	-7.66447900	9.25997700	5.48578900	0.74839600	10.84834400
3402	34.01000000	9.07469400	0.63041800	4.47582900	7.93012400	-1.82135400	4.69053800	6.45778700	5.75846200	5.07242100	8.13657300	-1.47422300	2.51198700	9.20114200	-0.91505000	1.65223700	9.07665200	2.51987200	-1.95810100	14.28407000	-7.59221500	7.69951900	5.92410000	0.35345500	10.64520200
3403	34.02000000	9.21778200	0.63530800	4.44638600	8.01264200	-2.03137400	4.51898400	6.43785100	4.01393400	6.29940400	8.61633000	-2.47777200	3.04635600	9.38332100	-0.86295800	1.70324800	9.17076900	2.66966300	-1.30294400	16.51405700	-6.88120700	6.18502600	5.74118100	0.24708500	10.60298600
3404	34.03000000	9.37097600	0.76505100	4.26894800	8.04475900	-2.27025600	4.21515000	7.40012300	2.40464200	6.17169800	8.94313000	-3.50579600	3.82241000	9.47412900	-1.00889200	1.55332000	9.01665000	2.36234500	-1.15142800	17.43332100	-5.00293400	4.92289400	5.76616200	0.22707200	10.64715200
3405	34.04000000	9.46025900	0.72660500	4.14148200	7.90613000	-2.58669900	4.00764000	9.72664400	1.13564300	3.18557400	9.03710000	-4.37760900	4.59159100	9.53790500	-1.51655900	1.32711500	8.77554400	1.86799000	-1.28650400	17.35144600	-1.23239700	4.40636900	5.18051000	0.46944200	10.95076600
3406	34.05000000	9.71291200	0.76024900	4.17979700	7.80001200	-3.00840000	3.93944500	12.97041000	0.78268500	-1.16761500	8.94329600	-4.40676900	4.53128000	9.73266700	-2.01954400	1.07563700	8.89485100	1.28212200	-1.71559300	16.18781200	6.89318500	6.15619800	5.56367800	0.47007000	11.00863800
3407	34.06000000	9.83152400	0.87950500	4.21908500	7.71520100	-3.64143400	3.78363700	14.39225900	1.46928700	-1.90721000	8.14157200	-3.76406300	4.63221900	10.07139600	-2.68281900	1.09017800	9.52590600	0.64551600	-2.29246100	19.06409500	6.28418400	4.12880100	5.78318500	0.53641200	11.05187500
3408	34.07000000	9.98138800	0.82701800	4.26780500	7.83214900	-3.73974100	3.57457600	13.56535100	2.30698500	3.69759100	7.24198900	-3.33890700	5.29483600	10.37230100	-3.22842900	1.44071100	9.89202400	0.14488400	-2.76759400	21.97551200	3.71835000	-1.00261500	5.97326000	0.46859500	10.80238400
3409	34.08000000	9.95956500	0.94150200	4.27460400	7.86571800	-3.37138400	3.38157600	10.38802900	3.43205600	6.40574400	6.43009100	-4.64762800	5.04462000	10.39945800	-3.70997500	1.49176600	9.83716700	-0.18395700	-2.92815600	25.03577400	8.43620900	-4.21895000	5.64352500	0.80128200	11.25322800
3410	34.09000000	9.55924600	1.05247700	4.29263100	7.93796200	-2.72908100	3.30441100	5.00029000	4.51202000	1.92006800	4.67945200	-7.58646600	2.49365700	10.31606700	-3.91794500	1.53311700	9.51638000	-0.18536500	-2.95199200	25.29061700	18.17315200	-5.94793000	5.58072900	0.63739900	11.14692800
3411	34.10000000	9.17654800	1.06933800	4.02413000	7.53360600	-2.30771700	3.25237000	1.40091400	4.94728300	0.72085500	4.05976500	-9.41086900	-0.66558800	10.15925800	-3.41014600	1.06147500	9.14848900	-0.03802400	-2.80578900	22.38857000	22.02642900	-9.09746900	6.20152900	-0.01863200	10.83635500
3412	34.11000000	8.62793700	1.01116100	3.86506600	7.19229800	-2.14326700	3.23421000	2.23780400	3.40684300	2.45650900	5.37865000	-8.39327400	-1.90810000	9.63086500	-3.32704500	0.82056200	8.76161300	0.09602200	-2.56275700	19.68300500	22.29845700	-11.16757400	6.16859900	-0.21001700	10.65404800
3413	34.12000000	8.28360600	1.02539100	4.01097900	6.95265000	-2.13386900	2.83947100	5.26675200	1.90411000	0.80770300	6.83655600	-5.99702400	-1.27041800	8.97372100	-2.89378200	0.99320300	8.77380100	-0.34929300	-2.18847300	19.08273400	20.06518800	-11.18292300	6.61623300	0.34607200	10.37361000
3414	34.13000000	8.28642500	0.99738700	4.14844100	6.99337600	-1.99409600	2.36273900	6.53864700	3.05603700	0.79949400	7.55057100	-3.84930800	0.56153500	8.62455200	-1.54221100	1.17106300	8.85720100	-1.00016300	-1.78276700	19.55144399	2.08635499	-9.20073799	6.03844300	0.77843100	10.45543400
3415	34.14000000	8.00636800	1.09666000	4.28656700	6.88564300	-1.86165900	2.67056200	6.84041200	3.76541700	2.26319600	6.08848300	-2.51836200	2.09263500	8.94936400	0.21452600	0.98271300	8.82068800	-1.57859600	-1.65600800	17.25286002	-16.71649500	15.48834401	5.98416000	0.76974800	10.57544600
